<svg width="649" height="152" viewBox="0 0 649 152" fill="none" xmlns="http://www.w3.org/2000/svg">
<ellipse cx="324.435" cy="77.6587" rx="324.435" ry="73.6587" fill="#15C7FF"/>
<path d="M613.5 64.5C616.501 90.8056 596.858 98.5691 550.632 108.834C504.405 119.099 440.3 125.96 369.682 128.203C299.064 130.445 226.496 127.923 164.844 121.083C103.192 114.243 59.5643 103.191 35.9999 90.5C12.4356 77.8094 16.9999 60 16.9999 60C16.9999 60 110.27 28.7695 173.024 22.2926C235.779 15.8157 486.484 14.68 556.696 17.3328V28.4167L294.101 68.4394L613.5 64.5Z" fill="#007B64"/>
<path d="M614 63.0239C614 75.7835 596.648 83.6309 550.438 93.3769C504.228 103.123 440.146 109.638 369.554 111.767C298.962 113.896 226.42 111.501 164.79 105.007C103.161 98.5131 56.4251 88.3397 32.8693 76.2904C9.31346 64.2412 10.4595 51.0946 36.1043 39.1816C61.7491 27.2686 110.236 17.3588 172.968 11.2092C235.699 5.05964 344.813 -1.9948 415 0.523871C485.187 3.04254 512.011 7.02661 556.5 17.0238L294 55.0239L614 63.0239Z" fill="#00BC99"/>
<path d="M285 63.1675C285 80.0122 256 93.6675 159.5 89.1675C108.69 89.1675 60.8013 77.9145 72.5001 48.6675C82.5 23.6675 130.19 27.1675 181 27.1675C231.81 27.1675 285 39.1675 285 63.1675Z" fill="#10E2A0"/>
<path d="M436.5 16.5C436.5 24.7843 402.093 35 361.5 35C320.907 35 291 30.7843 291 22.5C291 14.2157 320.907 5 361.5 5C402.093 5 436.5 8.21573 436.5 16.5Z" fill="#10E2A0"/>
<path d="M510.5 79C510.5 97.5 458.093 100.796 417.5 100.796C356 100.796 331 93.2843 331 85C331 76.7157 356.5 67.2962 417.5 67.2962C458.093 67.2962 510.5 67.2962 510.5 79Z" fill="#10E2A0"/>
</svg>
