<svg width="35" height="35" viewBox="0 0 35 35" fill="none" xmlns="http://www.w3.org/2000/svg">
<g clip-path="url(#clip0_54_15411)">
<path d="M35 6.64781C33.6984 7.21875 32.3116 7.59719 30.8656 7.78094C32.3531 6.89281 33.4884 5.49719 34.0222 3.815C32.6353 4.64187 31.1041 5.22594 29.4722 5.55188C28.1553 4.14969 26.2784 3.28125 24.2309 3.28125C20.2584 3.28125 17.0603 6.50563 17.0603 10.4584C17.0603 11.0272 17.1084 11.5741 17.2266 12.0947C11.2612 11.8038 5.98281 8.94469 2.43687 4.58938C1.81781 5.66344 1.45469 6.89281 1.45469 8.21625C1.45469 10.7013 2.73438 12.9041 4.64187 14.1794C3.48906 14.1575 2.35812 13.8228 1.4 13.2956C1.4 13.3175 1.4 13.3459 1.4 13.3744C1.4 16.8612 3.88719 19.7575 7.14875 20.4247C6.56469 20.5844 5.92812 20.6609 5.2675 20.6609C4.80813 20.6609 4.34437 20.6347 3.90906 20.5384C4.83875 23.38 7.47688 25.4691 10.6138 25.5369C8.1725 27.4466 5.07281 28.5972 1.71719 28.5972C1.12875 28.5972 0.564375 28.5709 0 28.4987C3.17844 30.5484 6.94531 31.7188 11.0075 31.7188C24.2113 31.7188 31.43 20.7812 31.43 11.3006C31.43 10.9834 31.4191 10.6772 31.4037 10.3731C32.8278 9.3625 34.0244 8.10031 35 6.64781Z" fill="#03A9F4"/>
</g>
<defs>
<clipPath id="clip0_54_15411">
<rect width="35" height="35" fill="white"/>
</clipPath>
</defs>
</svg>
